<svg xmlns="http://www.w3.org/2000/svg" viewBox="0 0 3050 50" width="3050" height="50"><g fill="#f8f9fa"><path d="M20 43V7c0-2.8 2.2-5 5-5s5 2.2 5 5v36c0 2.8-2.2 5-5 5s-5-2.2-5-5z"/><path d="M43 30H7c-2.8 0-5-2.2-5-5s2.2-5 5-5h36c2.8 0 5 2.2 5 5s-2.2 5-5 5z"/></g><g fill="#f8f9fa"><path d="M70 43V7c0-2.8 2.2-5 5-5s5 2.2 5 5v36c0 2.8-2.2 5-5 5s-5-2.2-5-5z"/><path d="M93 30H57c-2.8 0-5-2.2-5-5s2.2-5 5-5h36c2.8 0 5 2.2 5 5s-2.2 5-5 5z"/></g><g fill="#f8f9fa"><path d="M120 43V7c0-2.8 2.2-5 5-5s5 2.2 5 5v36c0 2.8-2.2 5-5 5s-5-2.2-5-5z"/><path d="M143 30h-36c-2.8 0-5-2.2-5-5s2.2-5 5-5h36c2.8 0 5 2.2 5 5s-2.2 5-5 5z"/></g><path d="M175 47.5c-12.4 0-22.5-10.1-22.5-22.5S162.6 2.5 175 2.5s22.5 10.1 22.5 22.5-10.1 22.5-22.5 22.5zM225 47.47c-12.383 0-22.47-10.087-22.47-22.47S212.617 2.53 225 2.53 247.47 12.617 247.47 25 237.383 47.47 225 47.47zM275 47.378c-12.333 0-22.378-10.045-22.378-22.378S262.667 2.622 275 2.622 297.378 12.667 297.378 25 287.333 47.378 275 47.378zM325 47.227c-12.25 0-22.227-9.977-22.227-22.227S312.75 2.773 325 2.773 347.227 12.75 347.227 25 337.25 47.227 325 47.227zM375 47.014c-12.133 0-22.014-9.881-22.014-22.014S362.867 2.986 375 2.986 397.014 12.867 397.014 25 387.133 47.014 375 47.014zM425 46.74c-11.983 0-21.74-9.757-21.74-21.74 0-11.983 9.757-21.74 21.74-21.74 11.983 0 21.74 9.757 21.74 21.74 0 11.983-9.757 21.74-21.74 21.74zM475 46.406c-11.8 0-21.406-9.606-21.406-21.406 0-11.8 9.606-21.406 21.406-21.406 11.8 0 21.406 9.606 21.406 21.406 0 11.8-9.606 21.406-21.406 21.406zM525 46.011c-11.583 0-21.011-9.428-21.011-21.011 0-11.583 9.428-21.011 21.011-21.011 11.583 0 21.011 9.428 21.011 21.011 0 11.583-9.428 21.011-21.011 21.011zM575 45.556c-11.333 0-20.556-9.223-20.556-20.556S563.667 4.444 575 4.444 595.556 13.667 595.556 25 586.333 45.556 575 45.556zM625 45.039c-11.05 0-20.039-8.989-20.039-20.039S613.95 4.961 625 4.961 645.039 13.95 645.039 25 636.05 45.039 625 45.039zM675 44.462c-10.733 0-19.462-8.729-19.462-19.462S664.267 5.538 675 5.538 694.462 14.267 694.462 25 685.733 44.462 675 44.462zM725 43.824c-10.383 0-18.824-8.441-18.824-18.824 0-10.383 8.441-18.824 18.824-18.824 10.383 0 18.824 8.441 18.824 18.824 0 10.383-8.441 18.824-18.824 18.824zM775 43.125c-10 0-18.125-8.125-18.125-18.125S765 6.875 775 6.875 793.125 15 793.125 25 785 43.125 775 43.125zM825 42.365c-9.583 0-17.365-7.782-17.365-17.365 0-9.583 7.782-17.365 17.365-17.365 9.583 0 17.365 7.782 17.365 17.365 0 9.583-7.782 17.365-17.365 17.365zM875 41.545c-9.133 0-16.545-7.412-16.545-16.545 0-9.133 7.412-16.545 16.545-16.545 9.133 0 16.545 7.412 16.545 16.545 0 9.133-7.412 16.545-16.545 16.545zM925 40.664c-8.65 0-15.664-7.014-15.664-15.664 0-8.65 7.014-15.664 15.664-15.664 8.65 0 15.664 7.014 15.664 15.664 0 8.65-7.014 15.664-15.664 15.664zM975 39.722c-8.133 0-14.722-6.589-14.722-14.722S966.867 10.278 975 10.278 989.722 16.867 989.722 25 983.133 39.722 975 39.722zM1025 38.72c-7.583 0-13.72-6.137-13.72-13.72 0-7.583 6.137-13.72 13.72-13.72 7.583 0 13.72 6.137 13.72 13.72 0 7.583-6.137 13.72-13.72 13.72zM1075 37.656c-7 0-12.656-5.656-12.656-12.656 0-7 5.656-12.656 12.656-12.656 7 0 12.656 5.656 12.656 12.656 0 7-5.656 12.656-12.656 12.656zM1125 36.532c-6.383 0-11.532-5.149-11.532-11.532s5.149-11.532 11.532-11.532 11.532 5.149 11.532 11.532-5.149 11.532-11.532 11.532zM1175 35.347c-5.733 0-10.347-4.614-10.347-10.347s4.614-10.347 10.347-10.347 10.347 4.614 10.347 10.347-4.614 10.347-10.347 10.347zM1225 34.102c-5.05 0-9.102-4.052-9.102-9.102 0-5.05 4.052-9.102 9.102-9.102 5.05 0 9.102 4.052 9.102 9.102 0 5.05-4.052 9.102-9.102 9.102zM1275 32.795c-4.333 0-7.795-3.462-7.795-7.795s3.462-7.795 7.795-7.795 7.795 3.462 7.795 7.795-3.462 7.795-7.795 7.795zM1325 31.428c-3.583 0-6.428-2.845-6.428-6.428 0-3.583 2.845-6.428 6.428-6.428 3.583 0 6.428 2.845 6.428 6.428 0 3.583-2.845 6.428-6.428 6.428zM1375 30c-2.8 0-5-2.2-5-5s2.2-5 5-5 5 2.2 5 5-2.2 5-5 5zM1425.478 30h-.956c-2.533 0-4.522-1.989-4.522-4.522v-.956c0-2.533 1.989-4.522 4.522-4.522h.956c2.533 0 4.522 1.989 4.522 4.522v.956c0 2.533-1.989 4.522-4.522 4.522zM1476.911 30h-3.822c-1.733 0-3.089-1.356-3.089-3.089v-3.822c0-1.733 1.356-3.089 3.089-3.089h3.822c1.733 0 3.089 1.356 3.089 3.089v3.822c0 1.733-1.356 3.089-3.089 3.089z" fill="#f8f9fa"/><g fill="#f8f9fa"><path d="M1529.3 30h-8.6c-.4 0-.7-.3-.7-.7v-8.6c0-.4.3-.7.7-.7h8.6c.4 0 .7.3.7.7v8.6c0 .4-.3.7-.7.7z"/><path d="M1529.3 30h-8.6c-.4 0-.7-.3-.7-.7v-8.6c0-.4.3-.7.7-.7h8.6c.4 0 .7.3.7.7v8.6c0 .4-.3.7-.7.7z"/></g><g fill="#f8f9fa"><path d="M1579.295 30.02h-8.59c-.403 0-.705-.302-.705-.705v-8.63c0-.403.302-.705.705-.705h8.59c.403 0 .705.302.705.705v8.63c0 .403-.302.705-.705.705z"/><path d="M1579.315 30h-8.63c-.403 0-.705-.302-.705-.705v-8.59c0-.403.302-.705.705-.705h8.63c.403 0 .705.302.705.705v8.59c0 .403-.302.705-.705.705z"/></g><g fill="#f8f9fa"><path d="M1629.281 30.08h-8.562c-.411 0-.719-.308-.719-.719v-8.722c0-.411.308-.719.719-.719h8.562c.411 0 .719.308.719.719v8.722c0 .411-.308.719-.719.719z"/><path d="M1629.361 30h-8.722c-.411 0-.719-.308-.719-.719v-8.562c0-.411.308-.719.719-.719h8.722c.411 0 .719.308.719.719v8.562c0 .411-.308.719-.719.719z"/></g><g fill="#f8f9fa"><path d="M1679.257 30.18h-8.514c-.424 0-.743-.319-.743-.743v-8.874c0-.424.319-.743.743-.743h8.514c.424 0 .743.319.743.743v8.874c0 .424-.319.743-.743.743z"/><path d="M1679.437 30h-8.874c-.424 0-.743-.319-.743-.743v-8.514c0-.424.319-.743.743-.743h8.874c.424 0 .743.319.743.743v8.514c0 .424-.319.743-.743.743z"/></g><g fill="#f8f9fa"><path d="M1729.224 30.32h-8.448c-.442 0-.776-.334-.776-.776v-9.088c0-.442.334-.776.776-.776h8.448c.442 0 .776.334.776.776v9.088c0 .442-.334.776-.776.776z"/><path d="M1729.544 30h-9.088c-.442 0-.776-.334-.776-.776v-8.448c0-.442.334-.776.776-.776h9.088c.442 0 .776.334.776.776v8.448c0 .442-.334.776-.776.776z"/></g><g fill="#f8f9fa"><path d="M1779.181 30.5h-8.362c-.466 0-.819-.353-.819-.819v-9.362c0-.466.353-.819.819-.819h8.362c.466 0 .819.353.819.819v9.362c0 .466-.353.819-.819.819z"/><path d="M1779.681 30h-9.362c-.466 0-.819-.353-.819-.819v-8.362c0-.466.353-.819.819-.819h9.362c.466 0 .819.353.819.819v8.362c0 .466-.353.819-.819.819z"/></g><g fill="#f8f9fa"><path d="M1829.128 30.72h-8.256c-.496 0-.872-.376-.872-.872v-9.696c0-.496.376-.872.872-.872h8.256c.496 0 .872.376.872.872v9.696c0 .496-.376.872-.872.872z"/><path d="M1829.848 30h-9.696c-.496 0-.872-.376-.872-.872v-8.256c0-.496.376-.872.872-.872h9.696c.496 0 .872.376.872.872v8.256c0 .496-.376.872-.872.872z"/></g><g fill="#f8f9fa"><path d="M1879.066 30.98h-8.132c-.531 0-.934-.403-.934-.934V19.954c0-.531.403-.934.934-.934h8.132c.531 0 .934.403.934.934v10.092c0 .531-.403.934-.934.934z"/><path d="M1880.046 30h-10.092c-.531 0-.934-.403-.934-.934v-8.132c0-.531.403-.934.934-.934h10.092c.531 0 .934.403.934.934v8.132c0 .531-.403.934-.934.934z"/></g><g fill="#f8f9fa"><path d="M1928.994 31.28h-7.988c-.571 0-1.006-.435-1.006-1.006V19.726c0-.571.435-1.006 1.006-1.006h7.988c.571 0 1.006.435 1.006 1.006v10.548c0 .571-.435 1.006-1.006 1.006z"/><path d="M1930.274 30h-10.548c-.571 0-1.006-.435-1.006-1.006v-7.988c0-.571.435-1.006 1.006-1.006h10.548c.571 0 1.006.435 1.006 1.006v7.988c0 .571-.435 1.006-1.006 1.006z"/></g><g fill="#f8f9fa"><path d="M1978.913 31.62h-7.826c-.616 0-1.087-.471-1.087-1.087V19.467c0-.616.471-1.087 1.087-1.087h7.826c.616 0 1.087.471 1.087 1.087v11.066c0 .616-.471 1.087-1.087 1.087z"/><path d="M1980.533 30h-11.066c-.616 0-1.087-.471-1.087-1.087v-7.826c0-.616.471-1.087 1.087-1.087h11.066c.616 0 1.087.471 1.087 1.087v7.826c0 .616-.471 1.087-1.087 1.087z"/></g><g fill="#f8f9fa"><path d="M2028.822 32h-7.644c-.667 0-1.178-.511-1.178-1.178V19.178c0-.667.511-1.178 1.178-1.178h7.644c.667 0 1.178.511 1.178 1.178v11.644c0 .667-.511 1.178-1.178 1.178z"/><path d="M2030.822 30h-11.644c-.667 0-1.178-.511-1.178-1.178v-7.644c0-.667.511-1.178 1.178-1.178h11.644c.667 0 1.178.511 1.178 1.178v7.644c0 .667-.511 1.178-1.178 1.178z"/></g><g fill="#f8f9fa"><path d="M2078.722 32.42h-7.444c-.723 0-1.278-.555-1.278-1.278V18.858c0-.723.555-1.278 1.278-1.278h7.444c.723 0 1.278.555 1.278 1.278v12.284c0 .723-.555 1.278-1.278 1.278z"/><path d="M2081.142 30h-12.284c-.723 0-1.278-.555-1.278-1.278v-7.444c0-.723.555-1.278 1.278-1.278h12.284c.723 0 1.278.555 1.278 1.278v7.444c0 .723-.555 1.278-1.278 1.278z"/></g><g fill="#f8f9fa"><path d="M2128.612 32.88h-7.224c-.784 0-1.388-.604-1.388-1.388V18.508c0-.784.604-1.388 1.388-1.388h7.224c.784 0 1.388.604 1.388 1.388v12.984c0 .784-.604 1.388-1.388 1.388z"/><path d="M2131.492 30h-12.984c-.784 0-1.388-.604-1.388-1.388v-7.224c0-.784.604-1.388 1.388-1.388h12.984c.784 0 1.388.604 1.388 1.388v7.224c0 .784-.604 1.388-1.388 1.388z"/></g><g fill="#f8f9fa"><path d="M2178.493 33.38h-6.986c-.85 0-1.507-.657-1.507-1.507V18.127c0-.85.657-1.507 1.507-1.507h6.986c.85 0 1.507.657 1.507 1.507v13.746c0 .85-.657 1.507-1.507 1.507z"/><path d="M2181.873 30h-13.746c-.85 0-1.507-.657-1.507-1.507v-6.986c0-.85.657-1.507 1.507-1.507h13.746c.85 0 1.507.657 1.507 1.507v6.986c0 .85-.657 1.507-1.507 1.507z"/></g><g fill="#f8f9fa"><path d="M2228.364 33.92h-6.728c-.922 0-1.636-.714-1.636-1.636V17.716c0-.922.714-1.636 1.636-1.636h6.728c.922 0 1.636.714 1.636 1.636v14.568c0 .922-.714 1.636-1.636 1.636z"/><path d="M2232.284 30h-14.568c-.922 0-1.636-.714-1.636-1.636v-6.728c0-.922.714-1.636 1.636-1.636h14.568c.922 0 1.636.714 1.636 1.636v6.728c0 .922-.714 1.636-1.636 1.636z"/></g><g fill="#f8f9fa"><path d="M2278.225 34.5h-6.45c-1 0-1.775-.775-1.775-1.775v-15.45c0-1 .775-1.775 1.775-1.775h6.45c1 0 1.775.775 1.775 1.775v15.45c0 1-.775 1.775-1.775 1.775z"/><path d="M2282.725 30h-15.45c-1 0-1.775-.775-1.775-1.775v-6.45c0-1 .775-1.775 1.775-1.775h15.45c1 0 1.775.775 1.775 1.775v6.45c0 1-.775 1.775-1.775 1.775z"/></g><g fill="#f8f9fa"><path d="M2328.077 35.12h-6.154c-1.083 0-1.923-.84-1.923-1.923V16.803c0-1.083.84-1.923 1.923-1.923h6.154c1.083 0 1.923.84 1.923 1.923v16.394c0 1.083-.84 1.923-1.923 1.923z"/><path d="M2333.197 30h-16.394c-1.083 0-1.923-.84-1.923-1.923v-6.154c0-1.083.84-1.923 1.923-1.923h16.394c1.083 0 1.923.84 1.923 1.923v6.154c0 1.083-.84 1.923-1.923 1.923z"/></g><g fill="#f8f9fa"><path d="M2377.919 35.78h-5.838c-1.171 0-2.081-.91-2.081-2.081V16.301c0-1.171.91-2.081 2.081-2.081h5.838c1.171 0 2.081.91 2.081 2.081v17.398c0 1.171-.91 2.081-2.081 2.081z"/><path d="M2383.699 30h-17.398c-1.171 0-2.081-.91-2.081-2.081v-5.838c0-1.171.91-2.081 2.081-2.081h17.398c1.171 0 2.081.91 2.081 2.081v5.838c0 1.171-.91 2.081-2.081 2.081z"/></g><g fill="#f8f9fa"><path d="M2427.752 36.48h-5.504c-1.264 0-2.248-.984-2.248-2.248V15.768c0-1.264.984-2.248 2.248-2.248h5.504c1.264 0 2.248.984 2.248 2.248v18.464c0 1.264-.984 2.248-2.248 2.248z"/><path d="M2434.232 30h-18.464c-1.264 0-2.248-.984-2.248-2.248v-5.504c0-1.264.984-2.248 2.248-2.248h18.464c1.264 0 2.248.984 2.248 2.248v5.504c0 1.264-.984 2.248-2.248 2.248z"/></g><g fill="#f8f9fa"><path d="M2477.575 37.22h-5.15c-1.363 0-2.425-1.062-2.425-2.425v-19.59c0-1.363 1.062-2.425 2.425-2.425h5.15c1.363 0 2.425 1.062 2.425 2.425v19.59c0 1.363-1.062 2.425-2.425 2.425z"/><path d="M2484.795 30h-19.59c-1.363 0-2.425-1.062-2.425-2.425v-5.15c0-1.363 1.062-2.425 2.425-2.425h19.59c1.363 0 2.425 1.062 2.425 2.425v5.15c0 1.363-1.062 2.425-2.425 2.425z"/></g><g fill="#f8f9fa"><path d="M2527.389 38h-4.778c-1.467 0-2.611-1.144-2.611-2.611V14.611c0-1.467 1.144-2.611 2.611-2.611h4.778c1.467 0 2.611 1.144 2.611 2.611v20.778c0 1.467-1.144 2.611-2.611 2.611z"/><path d="M2535.389 30h-20.778c-1.467 0-2.611-1.144-2.611-2.611v-4.778c0-1.467 1.144-2.611 2.611-2.611h20.778c1.467 0 2.611 1.144 2.611 2.611v4.778c0 1.467-1.144 2.611-2.611 2.611z"/></g><g fill="#f8f9fa"><path d="M2577.193 38.82h-4.386c-1.576 0-2.807-1.231-2.807-2.807V13.987c0-1.576 1.231-2.807 2.807-2.807h4.386c1.576 0 2.807 1.231 2.807 2.807v22.026c0 1.576-1.231 2.807-2.807 2.807z"/><path d="M2586.013 30h-22.026c-1.576 0-2.807-1.231-2.807-2.807v-4.386c0-1.576 1.231-2.807 2.807-2.807h22.026c1.576 0 2.807 1.231 2.807 2.807v4.386c0 1.576-1.231 2.807-2.807 2.807z"/></g><g fill="#f8f9fa"><path d="M2626.988 39.68h-3.976c-1.69 0-3.012-1.322-3.012-3.012V13.332c0-1.69 1.322-3.012 3.012-3.012h3.976c1.69 0 3.012 1.322 3.012 3.012v23.336c0 1.69-1.322 3.012-3.012 3.012z"/><path d="M2636.668 30h-23.336c-1.69 0-3.012-1.322-3.012-3.012v-3.976c0-1.69 1.322-3.012 3.012-3.012h23.336c1.69 0 3.012 1.322 3.012 3.012v3.976c0 1.69-1.322 3.012-3.012 3.012z"/></g><g fill="#f8f9fa"><path d="M2676.773 40.58h-3.546c-1.81 0-3.227-1.417-3.227-3.227V12.647c0-1.81 1.417-3.227 3.227-3.227h3.546c1.81 0 3.227 1.417 3.227 3.227v24.706c0 1.81-1.417 3.227-3.227 3.227z"/><path d="M2687.353 30h-24.706c-1.81 0-3.227-1.417-3.227-3.227v-3.546c0-1.81 1.417-3.227 3.227-3.227h24.706c1.81 0 3.227 1.417 3.227 3.227v3.546c0 1.81-1.417 3.227-3.227 3.227z"/></g><g fill="#f8f9fa"><path d="M2726.548 41.52h-3.096c-1.936 0-3.452-1.516-3.452-3.452V11.932c0-1.936 1.516-3.452 3.452-3.452h3.096c1.936 0 3.452 1.516 3.452 3.452v26.136c0 1.936-1.516 3.452-3.452 3.452z"/><path d="M2738.068 30h-26.136c-1.936 0-3.452-1.516-3.452-3.452v-3.096c0-1.936 1.516-3.452 3.452-3.452h26.136c1.936 0 3.452 1.516 3.452 3.452v3.096c0 1.936-1.516 3.452-3.452 3.452z"/></g><g fill="#f8f9fa"><path d="M2776.314 42.5h-2.628c-2.067 0-3.686-1.619-3.686-3.686V11.186c0-2.067 1.619-3.686 3.686-3.686h2.628c2.067 0 3.686 1.619 3.686 3.686v27.628c0 2.067-1.619 3.686-3.686 3.686z"/><path d="M2788.814 30h-27.628c-2.067 0-3.686-1.619-3.686-3.686v-2.628c0-2.067 1.619-3.686 3.686-3.686h27.628c2.067 0 3.686 1.619 3.686 3.686v2.628c0 2.067-1.619 3.686-3.686 3.686z"/></g><g fill="#f8f9fa"><path d="M2826.07 43.52h-2.14c-2.203 0-3.93-1.727-3.93-3.93V10.41c0-2.203 1.727-3.93 3.93-3.93h2.14c2.203 0 3.93 1.727 3.93 3.93v29.18c0 2.203-1.727 3.93-3.93 3.93z"/><path d="M2839.59 30h-29.18c-2.203 0-3.93-1.727-3.93-3.93v-2.14c0-2.203 1.727-3.93 3.93-3.93h29.18c2.203 0 3.93 1.727 3.93 3.93v2.14c0 2.203-1.727 3.93-3.93 3.93z"/></g><g fill="#f8f9fa"><path d="M2875.817 44.58h-1.634c-2.344 0-4.183-1.839-4.183-4.183V9.603c0-2.344 1.839-4.183 4.183-4.183h1.634c2.344 0 4.183 1.839 4.183 4.183v30.794c0 2.344-1.839 4.183-4.183 4.183z"/><path d="M2890.397 30h-30.794c-2.344 0-4.183-1.839-4.183-4.183v-1.634c0-2.344 1.839-4.183 4.183-4.183h30.794c2.344 0 4.183 1.839 4.183 4.183v1.634c0 2.344-1.839 4.183-4.183 4.183z"/></g><g fill="#f8f9fa"><path d="M2925.554 45.68h-1.108c-2.491 0-4.446-1.955-4.446-4.446V8.766c0-2.491 1.955-4.446 4.446-4.446h1.108c2.491 0 4.446 1.955 4.446 4.446v32.468c0 2.491-1.955 4.446-4.446 4.446z"/><path d="M2941.234 30h-32.468c-2.491 0-4.446-1.955-4.446-4.446v-1.108c0-2.491 1.955-4.446 4.446-4.446h32.468c2.491 0 4.446 1.955 4.446 4.446v1.108c0 2.491-1.955 4.446-4.446 4.446z"/></g><g fill="#f8f9fa"><path d="M2975.282 46.82h-.564c-2.643 0-4.718-2.075-4.718-4.718V7.898c0-2.643 2.075-4.718 4.718-4.718h.564c2.643 0 4.718 2.075 4.718 4.718v34.204c0 2.643-2.075 4.718-4.718 4.718z"/><path d="M2992.102 30h-34.204c-2.643 0-4.718-2.075-4.718-4.718v-.564c0-2.643 2.075-4.718 4.718-4.718h34.204c2.643 0 4.718 2.075 4.718 4.718v.564c0 2.643-2.075 4.718-4.718 4.718z"/></g><g fill="#f8f9fa"><path d="M3025 48c-2.8 0-5-2.2-5-5V7c0-2.8 2.2-5 5-5s5 2.2 5 5v36c0 2.8-2.2 5-5 5z"/><path d="M3043 30h-36c-2.8 0-5-2.2-5-5s2.2-5 5-5h36c2.8 0 5 2.2 5 5s-2.2 5-5 5z"/></g></svg>