<svg xmlns="http://www.w3.org/2000/svg" viewBox="0 0 3050 50" width="3050" height="50"><g fill="#f8f9fa"><path d="M26.3 17.4c.2-.3.6-.3.9 0l5.6 5.6c.2.2.2.6 0 .9L19.2 37.6l-5.8.6c-.8.1-1.4-.6-1.3-1.3l.6-5.8 6.8-6.85c2.267-2.283 4.533-4.567 6.8-6.85m11-1.4c.9.9.9 2.4 0 3.5l-2.2 2.2c-.3.2-.7.2-.9 0l-5.6-5.6c-.2-.3-.2-.7 0-.9l2.2-2.2c1-.9 2.6-.9 3.5 0l3 3"/><path d="M13.2 38.2c-.7 0-1.2-.5-1.2-1.2s.5-1.2 1.2-1.2c.14 0 .272.02.394.058.121.037.232.092.331.163.098.07.184.156.254.254.071.099.126.21.163.331.038.122.058.254.058.394 0 .7-.5 1.2-1.2 1.2"/></g><g fill="#f8f9fa"><path d="M76.437 17.4c.198-.297.594-.297.891 0l5.6 5.6c.2.2.2.6 0 .9l-13.6 13.7-5.8.6c-.8.1-1.4-.6-1.3-1.3l.6-5.8 6.872-6.923c2.245-2.262 4.492-4.521 6.737-6.777M87.428 16c.9.9.9 2.4 0 3.5l-2.2 2.2c-.3.2-.7.2-.9 0l-5.6-5.6c-.2-.3-.2-.7 0-.9l2.2-2.2c1-.9 2.6-.9 3.5 0l3 3"/><path d="M63.187 38.187C62.495 38.187 62 37.693 62 37c0-.7.5-1.2 1.2-1.2.181 0 .354.02.516.057.128.037.243.097.34.174.098.07.183.155.252.252.071.105.119.22.149.34.037.121.057.251.057.39-.042.692-.579 1.187-1.314 1.187-.007 0-.013-.005-.013-.013"/></g><g fill="#f8f9fa"><path d="M126.944 17.4c.19-.285.57-.285.855 0l5.6 5.6c.2.2.2.6 0 .9l-13.6 13.7-5.8.6c-.8.1-1.4-.6-1.3-1.3l.6-5.8 7.14-7.192c2.163-2.184 4.337-4.354 6.505-6.508m10.955-1.4c.9.9.9 2.4 0 3.5l-2.2 2.2c-.3.2-.7.2-.9 0l-5.6-5.6c-.2-.3-.2-.7 0-.9l2.2-2.2c1-.9 2.6-.9 3.5 0l3 3"/><path d="M113.14 38.14c-.665 0-1.14-.475-1.14-1.14 0-.7.5-1.2 1.2-1.2.331 0 .655.019.968.055.151.035.281.113.375.215.093.067.175.148.241.241.072.129.095.259.096.375.035.115.054.241.054.374-.198.665-.871 1.14-1.734 1.14-.035 0-.06-.025-.06-.06"/></g><g fill="#f8f9fa"><path d="M178.028 17.4c.173-.26.52-.26.779 0l5.6 5.6c.2.2.2.6 0 .9l-13.6 13.7-5.8.6c-.8.1-1.4-.6-1.3-1.3l.6-5.8 7.711-7.768c1.99-2.017 4.007-3.995 6.01-5.932m10.879-1.4c.9.9.9 2.4 0 3.5l-2.2 2.2c-.3.2-.7.2-.9 0l-5.6-5.6c-.2-.3-.2-.7 0-.9l2.2-2.2c1-.9 2.6-.9 3.5 0l3 3"/><path d="M163.039 38.039c-.606 0-1.039-.433-1.039-1.039 0-.7.5-1.2 1.2-1.2.653 0 1.298.017 1.935.05.199.032.362.147.447.302.086.061.16.135.221.22.074.179.042.343-.02.448.033.105.05.219.05.341-.531.606-1.495 1.039-2.633 1.039-.094 0-.161-.067-.161-.161"/></g><g fill="#f8f9fa"><path d="M229.887 17.4c.144-.217.433-.217.65 0l5.6 5.6c.2.2.2.6 0 .9l-13.6 13.7-5.8.6c-.8.1-1.4-.6-1.3-1.3l.6-5.8 8.69-8.755c1.692-1.732 3.44-3.38 5.16-4.945m10.75-1.4c.9.9.9 2.4 0 3.5l-2.2 2.2c-.3.2-.7.2-.9 0l-5.6-5.6c-.2-.3-.2-.7 0-.9l2.2-2.2c1-.9 2.6-.9 3.5 0l3 3"/><path d="M212.866 37.866c-.505 0-.866-.361-.866-.866 0-.7.5-1.2 1.2-1.2 1.204 0 2.402.014 3.593.042.282.027.502.206.573.451.071.051.133.113.183.184.079.265-.048.485-.215.573.027.087.041.183.041.284-1.103.505-2.567.866-4.175.866-.195 0-.334-.139-.334-.334"/></g><g fill="#f8f9fa"><path d="M282.199 17.4c.108-.163.325-.163.488 0l5.6 5.6c.2.2.2.6 0 .9l-13.6 13.7-5.8.6c-.8.1-1.4-.6-1.3-1.3l.6-5.8 9.909-9.982c1.322-1.377 2.735-2.616 4.103-3.718m10.588-1.4c.9.9.9 2.4 0 3.5l-2.2 2.2c-.3.2-.7.2-.9 0l-5.6-5.6c-.2-.3-.2-.7 0-.9l2.2-2.2c1-.9 2.6-.9 3.5 0l3 3"/><path d="M262.651 37.651c-.38 0-.651-.271-.651-.651 0-.7.5-1.2 1.2-1.2 1.89 0 3.775.011 5.655.031.386.021.675.279.728.638.054.038.1.084.138.138.084.373-.16.662-.46.728.021.066.032.138.032.214-1.814.38-3.899.651-6.093.651-.32 0-.549-.229-.549-.549"/></g><g fill="#f8f9fa"><path d="M334.215 17.4c.078-.116.232-.116.348 0l5.6 5.6c.2.2.2.6 0 .9l-13.6 13.7-5.8.6c-.8.1-1.4-.6-1.3-1.3l.6-5.8 10.973-11.053c.998-1.066 2.119-1.949 3.179-2.647m10.448-1.4c.9.9.9 2.4 0 3.5l-2.2 2.2c-.3.2-.7.2-.9 0l-5.6-5.6c-.2-.3-.2-.7 0-.9l2.2-2.2c1-.9 2.6-.9 3.5 0l3 3"/><path d="M312.464 37.464c-.271 0-.464-.194-.464-.464 0-.7.5-1.2 1.2-1.2 2.488 0 4.973.008 7.454.022.476.015.826.343.864.8.038.027.071.06.098.098.089.467-.258.817-.673.864.015.047.022.098.022.152-2.433.271-5.061.464-7.765.464-.43 0-.736-.307-.736-.736"/></g><g fill="#f8f9fa"><path d="M385.717 17.4c.054-.081.162-.081.243 0l5.6 5.6c.2.2.2.6 0 .9l-13.6 13.7-5.8.6c-.8.1-1.4-.6-1.3-1.3l.6-5.8 11.763-11.85c.758-.836 1.663-1.452 2.494-1.85M396.06 16c.9.9.9 2.4 0 3.5l-2.2 2.2c-.3.2-.7.2-.9 0l-5.6-5.6c-.2-.3-.2-.7 0-.9l2.2-2.2c1-.9 2.6-.9 3.5 0l3 3"/><path d="M362.324 37.324c-.189 0-.324-.135-.324-.324 0-.7.5-1.2 1.2-1.2 2.933 0 5.865.005 8.793.016.544.01.939.39.965.92.027.019.05.042.069.068.092.538-.331.933-.832.966.01.033.016.068.016.106-2.896.189-5.926.324-9.011.324-.511 0-.876-.365-.876-.876"/></g><g fill="#f8f9fa"><path d="M436.806 17.4c.037-.056.112-.056.167 0l5.6 5.6c.2.2.2.6 0 .9l-13.6 13.7-5.8.6c-.8.1-1.4-.6-1.3-1.3l.6-5.8 12.338-12.429c.584-.668 1.33-1.092 1.995-1.271m10.267-1.4c.9.9.9 2.4 0 3.5l-2.2 2.2c-.3.2-.7.2-.9 0l-5.6-5.6c-.2-.3-.2-.7 0-.9l2.2-2.2c1-.9 2.6-.9 3.5 0l3 3"/><path d="M412.223 37.223c-.13 0-.223-.093-.223-.223 0-.7.5-1.2 1.2-1.2 3.257 0 6.512.004 9.765.011.592.007 1.02.424 1.039 1.007.018.013.034.029.047.048.094.588-.384 1.016-.947 1.038.007.023.01.047.01.073-3.23.13-6.554.223-9.914.223-.57 0-.977-.407-.977-.977"/></g><g fill="#f8f9fa"><path d="M487.6 17.4c.025-.037.074-.037.112 0l5.6 5.6c.2.2.2.6 0 .9l-13.6 13.7-5.8.6c-.8.1-1.4-.6-1.3-1.3l.6-5.8 12.756-12.85c.457-.546 1.088-.83 1.632-.85m10.212-1.4c.9.9.9 2.4 0 3.5l-2.2 2.2c-.3.2-.7.2-.9 0l-5.6-5.6c-.2-.3-.2-.7 0-.9l2.2-2.2c1-.9 2.6-.9 3.5 0l3 3"/><path d="M462.149 37.149c-.087 0-.149-.062-.149-.149 0-.7.5-1.2 1.2-1.2 3.492 0 6.983.002 10.473.007.628.005 1.08.45 1.092 1.072.012.008.023.019.032.031.096.625-.423 1.077-1.031 1.092.004.015.007.032.007.049-3.475.087-7.012.149-10.573.149-.613 0-1.051-.438-1.051-1.051"/></g><g fill="#f8f9fa"><path d="M538.178 17.4c.016-.024.048-.024.071 0l5.6 5.6c.2.2.2.6 0 .9l-13.6 13.7-5.8.6c-.8.1-1.4-.6-1.3-1.3l.6-5.8 13.062-13.157c.363-.457.911-.638 1.367-.543m10.171-1.4c.9.9.9 2.4 0 3.5l-2.2 2.2c-.3.2-.7.2-.9 0l-5.6-5.6c-.2-.3-.2-.7 0-.9l2.2-2.2c1-.9 2.6-.9 3.5 0l3 3"/><path d="M512.095 37.095c-.055 0-.095-.04-.095-.095 0-.7.5-1.2 1.2-1.2 3.664 0 7.326.002 10.988.005.655.003 1.124.467 1.132 1.117.007.006.014.013.02.021.097.652-.451 1.121-1.092 1.131.003.009.004.02.004.031-3.652.055-7.344.095-11.052.095-.645 0-1.105-.46-1.105-1.105"/></g><g fill="#f8f9fa"><path d="M588.593 17.4c.009-.014.028-.014.042 0l5.6 5.6c.2.2.2.6 0 .9l-13.6 13.7-5.8.6c-.8.1-1.4-.6-1.3-1.3l.6-5.8 13.28-13.378c.298-.393.786-.5 1.178-.322m10.142-1.4c.9.9.9 2.4 0 3.5l-2.2 2.2c-.3.2-.7.2-.9 0l-5.6-5.6c-.2-.3-.2-.7 0-.9l2.2-2.2c1-.9 2.6-.9 3.5 0l3 3"/><path d="M562.056 37.056c-.032 0-.056-.023-.056-.056 0-.7.5-1.2 1.2-1.2 3.787 0 7.573.001 11.359.003.672.001 1.154.481 1.159 1.151.004.003.008.007.012.012.098.672-.471 1.153-1.136 1.159.002.006.003.012.003.019-3.78.032-7.584.056-11.397.056-.667 0-1.144-.476-1.144-1.144"/></g><g fill="#f8f9fa"><path d="M638.881 17.4c.005-.007.015-.007.022 0l5.6 5.6c.2.2.2.6 0 .9l-13.6 13.7-5.8.6c-.8.1-1.4-.6-1.3-1.3l.6-5.8 13.432-13.531c.251-.349.697-.405 1.046-.169m10.122-1.4c.9.9.9 2.4 0 3.5l-2.2 2.2c-.3.2-.7.2-.9 0l-5.6-5.6c-.2-.3-.2-.7 0-.9l2.2-2.2c1-.9 2.6-.9 3.5 0l3 3"/><path d="M612.03 37.03c-.018 0-.03-.013-.03-.03 0-.7.5-1.2 1.2-1.2 3.872 0 7.744 0 11.615.001.686.001 1.176.49 1.179 1.175l.006.006c.099.685-.484 1.176-1.166 1.179.001.003.001.006.001.009-3.868.018-7.749.03-11.635.03-.683 0-1.17-.488-1.17-1.17"/></g><g fill="#f8f9fa"><path d="M689.067 17.4c.002-.003.006-.003.009 0l5.6 5.6c.2.2.2.6 0 .9l-13.6 13.7-5.8.6c-.8.1-1.4-.6-1.3-1.3l.6-5.8 13.53-13.629c.221-.321.64-.344.961-.071m10.109-1.4c.9.9.9 2.4 0 3.5l-2.2 2.2c-.3.2-.7.2-.9 0l-5.6-5.6c-.2-.3-.2-.7 0-.9l2.2-2.2c1-.9 2.6-.9 3.5 0l3 3"/><path d="M662.012 37.012c-.007 0-.012-.005-.012-.012 0-.7.5-1.2 1.2-1.2 3.927 0 7.854 0 11.781.001.694 0 1.19.495 1.191 1.189.001.001.002.001.003.003.099.693-.494 1.189-1.186 1.191v.004c-3.925.007-7.856.012-11.789.012-.693 0-1.188-.495-1.188-1.188"/></g><g fill="#f8f9fa"><path d="M739.169 17.4c0-.001.001-.001.002 0l5.6 5.6c.2.2.2.6 0 .9l-13.6 13.7-5.8.6c-.8.1-1.4-.6-1.3-1.3l.6-5.8 13.583-13.683c.205-.305.61-.311.915-.017m10.102-1.4c.9.9.9 2.4 0 3.5l-2.2 2.2c-.3.2-.7.2-.9 0l-5.6-5.6c-.2-.3-.2-.7 0-.9l2.2-2.2c1-.9 2.6-.9 3.5 0l3 3"/><path d="M712.003 37.003c-.002 0-.003-.001-.003-.003 0-.7.5-1.2 1.2-1.2h11.872c.699 0 1.198.499 1.198 1.198.1.699-.498 1.198-1.196 1.198v.001c-3.957.002-7.915.003-11.874.003-.698 0-1.197-.499-1.197-1.197"/></g><g fill="#f8f9fa"><path d="M789.2 17.4l5.6 5.6c.2.2.2.6 0 .9l-13.6 13.7-5.8.6c-.8.1-1.4-.6-1.3-1.3l.6-5.8 13.6-13.7c.2-.3.6-.3.9 0m7.1-4.4l3 3c.9.9.9 2.4 0 3.5l-2.2 2.2c-.3.2-.7.2-.9 0l-5.6-5.6c-.2-.3-.2-.7 0-.9l2.2-2.2c1-.9 2.6-.9 3.5 0"/><path d="M775.1 38.2h-11.9c-.7 0-1.2-.5-1.2-1.2s.5-1.2 1.2-1.2h11.9c.7 0 1.2.5 1.2 1.2.1.7-.5 1.2-1.2 1.2"/></g><g fill="#f8f9fa"><path d="M839.217 17.356l5.54 5.541c.195.198.192.596-.005.897l-13.455 13.759-5.7.643c-.786.105-1.37-.587-1.266-1.286l.632-5.788 13.455-13.759c.198-.3.591-.303.884-.007h-.085m7.09-4.44l2.969 2.968c.013 0 .025.012.026.026.891.901.891 2.396 0 3.495-.725.729-1.454 1.458-2.183 2.183-.325.198-.749.198-.975 0-1.85-1.847-3.7-3.697-5.547-5.547-.198-.307-.198-.714 0-.923.725-.739 1.463-1.477 2.202-2.202 1.005-.89 2.603-.89 3.508 0"/><path d="M825.31 38.2H813.2c-.7 0-1.2-.5-1.2-1.2s.5-1.2 1.2-1.2h12.11c.7 0 1.2.5 1.2 1.2.099.7-.5 1.2-1.2 1.2"/></g><g fill="#f8f9fa"><path d="M889.28 17.195l5.32 5.321c.175.19.16.58-.025.885L881.654 37.38l-5.33.8c-.735.125-1.26-.54-1.141-1.235l.75-5.74 12.921-13.98c.19-.3.555-.315.825-.03h-.399m7.055-4.589l2.85 2.85c.065 0 .12.055.125.12.855.906.855 2.383 0 3.48-.697.711-1.408 1.423-2.12 2.12-.418.19-.931.19-1.255 0-1.788-1.774-3.577-3.562-5.35-5.351-.19-.336-.19-.768 0-1.009.697-.762 1.448-1.514 2.21-2.21 1.022-.856 2.613-.856 3.54 0"/><path d="M876.084 38.2H863.2c-.7 0-1.2-.5-1.2-1.2s.5-1.2 1.2-1.2h12.884c.7 0 1.2.5 1.2 1.2.095.7-.5 1.2-1.2 1.2"/></g><g fill="#f8f9fa"><path d="M939.414 16.851l4.85 4.85c.133.173.093.546-.067.86l-11.778 14.45-4.541 1.135c-.626.167-1.025-.439-.871-1.125l1.001-5.64 11.779-14.45c.173-.3.479-.34.699-.08h-1.072m6.98-4.909l2.598 2.598c.174 0 .321.147.335.321.779.918.779 2.356 0 3.447-.635.675-1.311 1.35-1.986 1.986-.617.173-1.321.173-1.851 0-1.657-1.617-3.314-3.274-4.93-4.931-.173-.398-.173-.883 0-1.194.635-.81 1.417-1.592 2.227-2.227 1.058-.78 2.635-.78 3.607 0"/><path d="M927.739 38.2H913.2c-.7 0-1.2-.5-1.2-1.2s.5-1.2 1.2-1.2h14.539c.7 0 1.2.5 1.2 1.2.086.7-.5 1.2-1.2 1.2"/></g><g fill="#f8f9fa"><path d="M989.645 16.26l4.043 4.043c.061.144-.023.489-.139.816l-9.819 15.258-3.186 1.712c-.439.239-.621-.267-.41-.939l1.434-5.466 9.818-15.257c.145-.3.35-.384.483-.167h-2.224m6.85-5.457l2.165 2.166c.362 0 .668.306.696.668.649.937.649 2.307 0 3.388-.53.613-1.143 1.226-1.756 1.755-.958.145-1.988.145-2.874 0-1.431-1.347-2.862-2.778-4.209-4.209-.145-.504-.145-1.08 0-1.512.529-.891 1.364-1.726 2.255-2.256 1.121-.649 2.674-.649 3.723 0"/><path d="M980.578 38.2H963.2c-.7 0-1.2-.5-1.2-1.2s.5-1.2 1.2-1.2h17.378c.7 0 1.2.5 1.2 1.2.072.7-.5 1.2-1.2 1.2"/></g><g fill="#f8f9fa"><path d="M1039.932 15.525l3.039 3.04c-.029.108-.166.417-.229.762l-7.381 16.261-1.502 2.429c-.205.329-.12-.051.163-.705l1.972-5.252 7.381-16.26c.109-.3.189-.438.215-.275h-3.658m6.688-6.137l1.628 1.628c.595 0 1.098.503 1.143 1.097.489.961.489 2.248 0 3.317-.398.536-.933 1.071-1.468 1.469-1.382.108-2.819.108-4.146 0-1.151-1.013-2.301-2.164-3.314-3.314-.109-.635-.109-1.325 0-1.906.398-.992 1.299-1.893 2.291-2.291 1.198-.489 2.722-.489 3.866 0"/><path d="M1034.108 38.2H1013.2c-.7 0-1.2-.5-1.2-1.2s.5-1.2 1.2-1.2h20.908c.7 0 1.2.5 1.2 1.2.054.7-.5 1.2-1.2 1.2"/></g><g fill="#f8f9fa"><path d="M1090.182 14.884l2.164 2.164c-.107.077-.291.355-.307.716l-5.255 17.136-.032 3.055c-.003.406.318.136.663-.503l2.441-5.063 5.255-17.137c.077-.3.048-.484-.02-.368h-4.909m6.548-6.731l1.159 1.159c.797 0 1.472.675 1.534 1.472.347.982.347 2.196 0 3.255-.284.467-.751.935-1.219 1.218-1.752.078-3.543.078-5.256 0-.905-.721-1.811-1.626-2.532-2.532-.077-.75-.077-1.538 0-2.25.283-1.081 1.242-2.039 2.323-2.322 1.266-.348 2.763-.348 3.991 0"/><path d="M1087.188 38.2H1063.2c-.7 0-1.2-.5-1.2-1.2s.5-1.2 1.2-1.2h23.988c.7 0 1.2.5 1.2 1.2.038.7-.5 1.2-1.2 1.2"/></g><g fill="#f8f9fa"><path d="M1140.368 14.407l1.512 1.512c-.165.054-.384.308-.365.681l-3.672 17.788 1.061 3.52c.149.465.644.276 1.036-.351l2.79-4.924 3.673-17.788c.054-.3-.057-.519-.195-.438h-5.84m6.443-7.174l.81.81c.949 0 1.752.803 1.825 1.752.243.998.243 2.157 0 3.208-.198.417-.615.834-1.032 1.032-2.028.054-4.082.054-6.083 0-.723-.504-1.446-1.227-1.95-1.95-.054-.835-.054-1.697 0-2.506.198-1.147 1.199-2.148 2.346-2.346 1.316-.243 2.795-.243 4.084 0"/><path d="M1139.48 38.2h-26.28c-.7 0-1.2-.5-1.2-1.2s.5-1.2 1.2-1.2h26.28c.7 0 1.2.5 1.2 1.2.027.7-.5 1.2-1.2 1.2"/></g><g fill="#f8f9fa"><path d="M1190.503 14.061l1.039 1.039c-.207.037-.451.274-.407.656l-2.524 18.26 1.856 3.858c.259.507.88.378 1.306-.241l3.043-4.823 2.524-18.261c.037-.3-.133-.544-.321-.488h-6.516m6.367-7.495l.557.557c1.059 0 1.954.896 2.036 1.954.167 1.009.167 2.129 0 3.175-.136.38-.517.76-.897.896-2.228.038-4.474.038-6.682 0-.591-.346-1.182-.937-1.528-1.527-.037-.898-.037-1.813 0-2.692.136-1.195 1.168-2.227 2.363-2.363 1.352-.167 2.817-.167 4.151 0"/><path d="M1191.144 38.2H1163.2c-.7 0-1.2-.5-1.2-1.2s.5-1.2 1.2-1.2h27.944c.7 0 1.2.5 1.2 1.2.019.7-.5 1.2-1.2 1.2"/></g><g fill="#f8f9fa"><path d="M1240.602 13.809l.694.694c-.238.025-.501.25-.438.637l-1.687 18.606 2.434 4.104c.339.538 1.053.451 1.504-.162l3.227-4.748 1.687-18.606c.025-.3-.188-.563-.414-.525h-7.007m6.311-7.729l.372.372c1.139 0 2.103.964 2.19 2.102.112 1.017.112 2.108 0 3.15-.091.354-.445.707-.798.798-2.373.025-4.759.025-7.12 0-.494-.231-.988-.726-1.22-1.22-.025-.942-.025-1.897 0-2.827.091-1.23 1.146-2.284 2.375-2.375 1.38-.112 2.834-.112 4.201 0"/><path d="M1242.357 38.2H1213.2c-.7 0-1.2-.5-1.2-1.2s.5-1.2 1.2-1.2h29.157c.7 0 1.2.5 1.2 1.2.012.7-.5 1.2-1.2 1.2"/></g><g fill="#f8f9fa"><path d="M1290.673 13.625l.444.443c-.26.016-.537.232-.46.624l-1.078 18.857 2.855 4.283c.397.56 1.179.505 1.647-.103l3.362-4.695 1.078-18.857c.015-.3-.229-.576-.482-.552h-7.366m6.272-7.899l.237.238c1.197 0 2.21 1.012 2.302 2.209.071 1.023.071 2.093 0 3.132-.058.334-.392.669-.727.727-2.479.016-4.966.016-7.437 0-.424-.148-.848-.572-.996-.996-.016-.976-.016-1.959 0-2.926.058-1.255 1.129-2.326 2.384-2.384 1.399-.071 2.845-.071 4.237 0"/><path d="M1293.239 38.2H1263.2c-.7 0-1.2-.5-1.2-1.2s.5-1.2 1.2-1.2h30.039c.7 0 1.2.5 1.2 1.2.008.7-.5 1.2-1.2 1.2"/></g><g fill="#f8f9fa"><path d="M1340.725 13.493l.263.263c-.276.01-.562.219-.476.614l-.64 19.037 3.158 4.412c.438.576 1.268.543 1.749-.061l3.459-4.657.64-19.036c.009-.3-.258-.586-.53-.572h-7.623m6.242-8.021l.141.141c1.239 0 2.287 1.048 2.383 2.287.042 1.027.042 2.082 0 3.119-.035.32-.355.641-.676.675-2.555.009-5.115.009-7.666 0-.373-.088-.747-.462-.835-.835-.009-.999-.009-2.003 0-2.997.035-1.273 1.117-2.356 2.391-2.39 1.413-.043 2.854-.043 4.262 0"/><path d="M1343.873 38.2H1313.2c-.7 0-1.2-.5-1.2-1.2s.5-1.2 1.2-1.2h30.673c.7 0 1.2.5 1.2 1.2.005.7-.5 1.2-1.2 1.2"/></g><g fill="#f8f9fa"><path d="M1390.76 13.401l.139.139c-.288.005-.58.21-.488.607l-.336 19.162 3.367 4.501c.468.588 1.331.57 1.821-.032l3.526-4.63.336-19.161c.005-.3-.277-.593-.562-.586h-7.803m6.223-8.106l.074.075c1.268 0 2.341 1.072 2.438 2.34.022 1.03.022 2.075 0 3.11-.018.311-.329.622-.64.64-2.608.005-5.218.005-7.824 0-.339-.046-.677-.385-.724-.724-.005-1.015-.005-2.033 0-3.046.019-1.286 1.109-2.376 2.395-2.395 1.423-.022 2.861-.022 4.281 0"/><path d="M1394.313 38.2H1363.2c-.7 0-1.2-.5-1.2-1.2s.5-1.2 1.2-1.2h31.113c.7 0 1.2.5 1.2 1.2.002.7-.5 1.2-1.2 1.2"/></g><g fill="#f8f9fa"><path d="M1440.783 13.342l.058.058c-.295.002-.591.204-.495.603l-.14 19.242 3.503 4.559c.486.595 1.371.588 1.867-.013l3.569-4.613.14-19.242c.002-.3-.29-.597-.584-.594h-7.918m6.21-8.16l.031.031c1.286 0 2.375 1.088 2.474 2.375.009 1.032.009 2.07 0 3.104-.008.304-.312.609-.617.616-2.642.003-5.285.003-7.926 0-.316-.019-.633-.335-.652-.651-.002-1.026-.002-2.053 0-3.077.008-1.295 1.104-2.391 2.398-2.398 1.429-.01 2.864-.01 4.292 0"/><path d="M1444.596 38.2H1413.2c-.7 0-1.2-.5-1.2-1.2s.5-1.2 1.2-1.2h31.396c.7 0 1.2.5 1.2 1.2.001.7-.5 1.2-1.2 1.2"/></g><g fill="#f8f9fa"><path d="M1490.796 13.31l.014.014c-.299 0-.598.201-.499.6l-.033 19.287 3.577 4.59c.497.599 1.393.597 1.892-.003l3.593-4.603.033-19.286c0-.3-.298-.6-.596-.599h-7.981m6.202-8.191l.008.008c1.296 0 2.394 1.097 2.494 2.394.002 1.033.002 2.067 0 3.101-.002.301-.303.602-.604.604h-7.983c-.304-.005-.608-.309-.612-.613-.001-1.031-.001-2.063 0-3.094.002-1.299 1.101-2.398 2.399-2.4 1.433-.002 2.866-.002 4.298 0"/><path d="M1494.752 38.2H1463.2c-.7 0-1.2-.5-1.2-1.2s.5-1.2 1.2-1.2h31.552c.7 0 1.2.5 1.2 1.2s-.5 1.2-1.2 1.2"/></g><g fill="#f8f9fa"><path d="M1540.8 13.3c-.3 0-.6.2-.5.6v19.3l3.6 4.6c.5.6 1.4.6 1.9 0l3.6-4.6V13.9c0-.3-.3-.6-.6-.6h-8m6.2-8.2c1.3 0 2.4 1.1 2.5 2.4v3.1c0 .3-.3.6-.6.6h-8c-.3 0-.6-.3-.6-.6V7.5c0-1.3 1.1-2.4 2.4-2.4h4.3"/><path d="M1544.8 38.2h-31.6c-.7 0-1.2-.5-1.2-1.2s.5-1.2 1.2-1.2h31.6c.7 0 1.2.5 1.2 1.2s-.5 1.2-1.2 1.2"/></g><g fill="#f8f9fa"><path d="M1590.655 13.27c-.3-.002-.601.196-.504.594l-.145 19.24 3.556 4.613c.493.601 1.39.609 1.893.014l3.624-4.558.144-19.24c.002-.3-.294-.601-.593-.603-2.659-.02-5.316-.04-7.975-.06m6.242-8.127c1.286 0 2.374 1.088 2.473 2.374.01 1.032.01 2.072 0 3.104-.008.305-.312.61-.617.617-2.642.002-5.284.002-7.924 0-.317-.02-.634-.336-.653-.653-.003-1.025-.003-2.052 0-3.076.007-1.294 1.103-2.391 2.397-2.398 1.429-.01 2.865-.01 4.292 0l.032.032"/><path d="M1594.802 38.2h-31.264c-.7 0-1.2-.5-1.2-1.2s.5-1.2 1.2-1.2h31.264c.7 0 1.2.5 1.2 1.2s-.501 1.2-1.2 1.2"/></g><g fill="#f8f9fa"><path d="M1640.121 13.16c-.3-.01-.605.18-.52.57l-.679 19.021 3.39 4.66c.47.605 1.355.639 1.87.064l3.71-4.4.679-19.02c.01-.3-.275-.605-.57-.615-2.627-.093-5.253-.187-7.88-.28m6.395-7.86c1.235 0 2.28 1.045 2.375 2.28.045 1.026.045 2.089 0 3.12-.037.321-.358.643-.68.68-2.549.01-5.102.01-7.646 0-.378-.093-.756-.472-.849-.85-.01-.996-.01-1.999 0-2.99.036-1.272 1.118-2.353 2.39-2.39 1.411-.045 2.853-.045 4.26 0l.15.15"/><path d="M1644.81 38.2h-30.022c-.7 0-1.2-.5-1.2-1.2s.5-1.2 1.2-1.2h30.022c.7 0 1.2.5 1.2 1.2s-.505 1.2-1.2 1.2"/></g><g fill="#f8f9fa"><path d="M1688.978 12.925c-.3-.027-.613.146-.553.52l-1.822 18.549 3.037 4.761c.42.614 1.28.707 1.82.174l3.895-4.064 1.821-18.55c.027-.3-.233-.613-.519-.64-2.56-.25-5.119-.5-7.679-.75m6.723-7.289c1.126 0 2.078.952 2.165 2.078.12 1.015.12 2.125 0 3.154-.098.358-.456.716-.814.814-2.35.027-4.713.027-7.049 0-.51-.25-1.02-.76-1.27-1.27-.027-.934-.027-1.883 0-2.805.098-1.224 1.149-2.275 2.373-2.373 1.375-.121 2.831-.121 4.193 0l.402.402"/><path d="M1694.827 38.2h-27.367c-.7 0-1.2-.5-1.2-1.2s.5-1.2 1.2-1.2h27.367c.7 0 1.2.5 1.2 1.2s-.514 1.2-1.2 1.2"/></g><g fill="#f8f9fa"><path d="M1737.018 12.521c-.3-.055-.627.089-.611.434l-3.781 17.743 2.432 4.933c.333.628 1.15.823 1.733.362l4.212-3.488 3.781-17.743c.056-.3-.161-.628-.433-.683-2.444-.519-4.888-1.039-7.333-1.558m7.285-6.309c.938 0 1.733.794 1.805 1.733.25.996.25 2.187 0 3.211-.204.421-.625.841-1.045 1.045-2.009.056-4.045.056-6.026 0-.736-.519-1.471-1.255-1.99-1.99-.056-.829-.056-1.687 0-2.489.204-1.142 1.202-2.14 2.344-2.344 1.313-.25 2.793-.25 4.078 0l.834.834"/><path d="M1744.856 38.2h-22.814c-.7 0-1.2-.5-1.2-1.2s.5-1.2 1.2-1.2h22.814c.7 0 1.2.5 1.2 1.2s-.528 1.2-1.2 1.2"/></g><g fill="#f8f9fa"><path d="M1784.581 12.02c-.3-.092-.645.017-.683.325l-6.218 16.74 1.679 5.148c.226.646.989.966 1.626.595l4.606-2.771 6.219-16.74c.091-.3-.072-.645-.326-.737-2.301-.853-4.602-1.707-6.903-2.56m7.984-5.091c.705 0 1.302.597 1.357 1.303.411.972.411 2.265 0 3.283-.336.498-.834.996-1.332 1.331-1.585.092-3.215.092-4.754 0-1.016-.853-2.032-1.87-2.886-2.886-.091-.698-.091-1.442 0-2.094.335-1.041 1.268-1.973 2.309-2.309 1.235-.411 2.745-.411 3.934 0l1.372 1.372M1794.891 38.2h-17.15c-.7 0-1.2-.5-1.2-1.2s.5-1.2 1.2-1.2h17.15c.7 0 1.2.5 1.2 1.2s-.545 1.2-1.2 1.2"/></g><g fill="#f8f9fa"><path d="M1832.455 11.582c-.3-.123-.661-.046-.745.232l-8.345 15.864 1.023 5.336c.132.661.847 1.091 1.532.798l4.949-2.146 8.345-15.864c.123-.3.007-.661-.232-.784-2.175-1.145-4.351-2.291-6.527-3.436m8.593-4.028c.502 0 .928.425.966.928.552.951.552 2.332 0 3.345-.45.566-1.016 1.132-1.582 1.582-1.214.123-2.49.123-3.643 0-1.261-1.145-2.523-2.407-3.668-3.668-.123-.583-.123-1.228 0-1.75.45-.952 1.325-1.827 2.277-2.277 1.168-.553 2.703-.553 3.809 0l1.841 1.84M1844.923 38.2h-12.211c-.7 0-1.2-.5-1.2-1.2s.5-1.2 1.2-1.2h12.211c.7 0 1.2.5 1.2 1.2s-.562 1.2-1.2 1.2"/></g><g fill="#f8f9fa"><path d="M1880.872 11.256c-.3-.146-.673-.092-.792.162l-9.927 15.212.534 5.476c.062.673.743 1.184 1.462.949l5.206-1.68 9.928-15.212c.146-.3.065-.673-.162-.819-2.083-1.363-4.166-2.725-6.249-4.088m9.047-3.236c.351 0 .648.297.675.648.657.936.657 2.383 0 3.392-.535.616-1.151 1.233-1.768 1.768-.939.146-1.951.146-2.817 0-1.443-1.363-2.887-2.806-4.25-4.25-.146-.498-.146-1.069 0-1.494.536-.886 1.368-1.719 2.254-2.254 1.117-.657 2.672-.657 3.716 0l2.19 2.19M1894.946 38.2h-8.533c-.7 0-1.2-.5-1.2-1.2s.5-1.2 1.2-1.2h8.533c.7 0 1.2.5 1.2 1.2s-.573 1.2-1.2 1.2"/></g><g fill="#f8f9fa"><path d="M1929.724 11.02c-.3-.163-.682-.126-.826.111l-11.076 14.739.179 5.577c.011.682.667 1.252 1.411 1.059l5.392-1.342 11.076-14.739c.163-.3.108-.682-.111-.845l-6.045-4.56m9.376-2.662c.241 0 .445.204.464.445.733.925.733 2.42 0 3.426-.597.653-1.25 1.306-1.903 1.903-.739.163-1.56.163-2.218 0-1.576-1.52-3.152-3.096-4.672-4.672-.163-.436-.163-.954 0-1.308.597-.839 1.399-1.64 2.237-2.238 1.081-.733 2.65-.733 3.649 0l2.443 2.444M1944.963 38.2h-5.864c-.7 0-1.2-.5-1.2-1.2s.5-1.2 1.2-1.2h5.864c.7 0 1.2.5 1.2 1.2s-.582 1.2-1.2 1.2"/></g><g fill="#f8f9fa"><path d="M1978.887 10.847c-.3-.175-.688-.15-.851.075l-11.913 14.394-.079 5.651c-.025.688.612 1.301 1.375 1.139l5.527-1.096 11.913-14.394c.175-.3.138-.688-.074-.863-1.966-1.635-3.932-3.271-5.898-4.906m9.616-2.243c.161 0 .298.136.31.298.789.916.789 2.446 0 3.45-.642.68-1.322 1.359-2.001 2.001-.594.176-1.275.176-1.781 0-1.672-1.635-3.345-3.307-4.98-4.979-.175-.391-.175-.87 0-1.173.643-.804 1.421-1.583 2.225-2.225 1.054-.788 2.633-.788 3.599 0l2.628 2.628M1994.975 38.2h-3.919c-.7 0-1.2-.5-1.2-1.2s.5-1.2 1.2-1.2h3.919c.7 0 1.2.5 1.2 1.2s-.587 1.2-1.2 1.2"/></g><g fill="#f8f9fa"><path d="M2028.277 10.722c-.3-.184-.692-.168-.868.047l-12.522 14.144-.268 5.705c-.052.692.572 1.337 1.348 1.197l5.626-.917 12.522-14.144c.184-.3.161-.692-.047-.876-1.93-1.719-3.86-3.437-5.791-5.156m9.791-1.939c.103 0 .191.087.199.19.828.911.828 2.466 0 3.469-.676.699-1.375 1.398-2.074 2.073-.487.184-1.067.184-1.462 0-1.743-1.719-3.485-3.462-5.204-5.204-.184-.358-.184-.808 0-1.074.675-.779 1.438-1.541 2.216-2.216 1.034-.829 2.621-.829 3.563 0l2.762 2.762M2044.984 38.2h-2.503c-.7 0-1.2-.5-1.2-1.2s.5-1.2 1.2-1.2h2.503c.7 0 1.2.5 1.2 1.2s-.592 1.2-1.2 1.2"/></g><g fill="#f8f9fa"><path d="M2077.84 10.632c-.3-.191-.695-.181-.881.028l-12.96 13.963-.403 5.744c-.072.695.542 1.362 1.328 1.239l5.697-.788 12.96-13.964c.191-.3.176-.695-.028-.886-1.905-1.779-3.809-3.557-5.713-5.336m9.916-1.72c.062 0 .113.052.118.113.858.906.858 2.479 0 3.481-.699.713-1.412 1.426-2.125 2.125-.411.19-.918.19-1.234 0-1.793-1.779-3.586-3.572-5.365-5.365-.19-.335-.19-.764 0-1.004.699-.76 1.45-1.51 2.21-2.209 1.02-.858 2.612-.858 3.538 0l2.858 2.859M2094.991 38.2h-1.487c-.7 0-1.2-.5-1.2-1.2s.5-1.2 1.2-1.2h1.487c.7 0 1.2.5 1.2 1.2s-.596 1.2-1.2 1.2"/></g><g fill="#f8f9fa"><path d="M2127.536 10.569c-.3-.195-.697-.19-.89.015l-13.263 13.839-.497 5.77c-.085.697.523 1.38 1.315 1.268l5.746-.699 13.264-13.839c.195-.3.187-.697-.015-.892-1.887-1.821-3.773-3.641-5.66-5.462m10.004-1.568c.032 0 .059.027.062.059.877.904.877 2.49 0 3.491-.715.722-1.438 1.445-2.161 2.16-.358.195-.814.195-1.075 0-1.828-1.821-3.656-3.648-5.477-5.476-.195-.319-.195-.734 0-.955.716-.747 1.458-1.49 2.205-2.205 1.011-.877 2.607-.877 3.52 0l2.926 2.926M2144.995 38.2h-.781c-.7 0-1.2-.5-1.2-1.2s.5-1.2 1.2-1.2h.781c.7 0 1.2.5 1.2 1.2s-.597 1.2-1.2 1.2"/></g><g fill="#f8f9fa"><path d="M2177.341 10.529c-.3-.198-.699-.196-.896.006l-13.46 13.758-.556 5.788c-.094.699.509 1.391 1.306 1.286l5.777-.641 13.46-13.758c.197-.3.194-.699-.007-.897-1.875-1.847-3.75-3.695-5.624-5.542m10.059-1.47c.014 0 .025.011.026.024.891.902.891 2.496 0 3.496-.726.729-1.455 1.458-2.183 2.184-.325.198-.748.198-.974 0-1.85-1.848-3.701-3.698-5.548-5.549-.198-.307-.198-.714 0-.922.726-.739 1.463-1.477 2.202-2.202 1.004-.891 2.603-.891 3.508 0l2.969 2.969M2194.998 38.2h-.327c-.7 0-1.2-.5-1.2-1.2s.5-1.2 1.2-1.2h.327c.7 0 1.2.5 1.2 1.2s-.599 1.2-1.2 1.2"/></g><g fill="#f8f9fa"><path d="M2227.233 10.507c-.3-.2-.7-.199-.899.001l-13.567 13.714-.589 5.797c-.099.7.502 1.398 1.301 1.297l5.795-.61 13.567-13.714c.199-.3.198-.699-.002-.899-1.869-1.862-3.737-3.724-5.606-5.586m10.091-1.417c.003 0 .006.003.006.006.898.9.898 2.499 0 3.499-.732.732-1.464 1.465-2.196 2.196-.306.2-.712.2-.918 0-1.862-1.862-3.725-3.725-5.587-5.588-.2-.301-.2-.703 0-.905.731-.735 1.465-1.469 2.2-2.2 1.001-.898 2.601-.898 3.502 0l2.993 2.992M2245 38.2h-.078c-.7 0-1.2-.5-1.2-1.2s.5-1.2 1.2-1.2h.078c.7 0 1.2.5 1.2 1.2s-.6 1.2-1.2 1.2"/></g><g fill="#f8f9fa"><path d="M2277.2 10.5c-.3-.2-.7-.2-.9 0l-13.6 13.7-.6 5.8c-.1.7.5 1.4 1.3 1.3l5.8-.6 13.6-13.7c.2-.3.2-.7 0-.9l-5.6-5.6m7 4.3c.2.2.6.2.9 0l2.2-2.2c.9-1 .9-2.6 0-3.5l-3-3c-.9-.9-2.5-.9-3.5 0l-2.2 2.2c-.2.2-.2.6 0 .9l5.6 5.6M2295 38.2c-.7 0-1.2-.5-1.2-1.2s.5-1.2 1.2-1.2 1.2.5 1.2 1.2-.6 1.2-1.2 1.2"/></g><g fill="#f8f9fa"><path d="M2327.19 10.573c-.321-.173-.74-.149-.962.073L2312.7 24.273l-.6 5.8c-.1.7.5 1.4 1.3 1.3l5.8-.6 13.6-13.7c.2-.3.2-.7 0-.9l-5.6-5.6c-.003-.003-.007-.003-.01 0m7.043 4.24c.198.198.594.198.89 0 .736-.716 1.461-1.426 2.177-2.14.883-.981.875-2.556-.023-3.439-.004.002-.008.002-.01 0l-3.028-3.028c-.892-.893-2.475-.897-3.462-.009l-2.154 2.153c-.187.188-.17.584.038.89l5.572 5.573M2345 38.177c-.687 0-1.177-.49-1.177-1.177s.49-1.177 1.177-1.177 1.177.49 1.177 1.177-.59 1.177-1.177 1.177"/></g><g fill="#f8f9fa"><path d="M2377.155 10.845c-.398-.076-.891.038-1.195.342l-13.26 13.358-.6 5.8c-.1.7.5 1.4 1.3 1.3l5.8-.6 13.6-13.7c.2-.3.2-.7 0-.9l-5.6-5.6c-.015-.015-.035-.015-.045 0m7.2 4.015c.19.19.57.19.855 0 .742-.652 1.438-1.274 2.09-1.915.818-.914.782-2.397-.11-3.216-.015.01-.035.01-.045 0l-3.13-3.13c-.865-.87-2.385-.89-3.325-.045l-1.98 1.981c-.14.145-.06.525.175.855l5.47 5.47M2395 38.077c-.63 0-1.077-.447-1.077-1.077 0-.63.447-1.077 1.077-1.077.63 0 1.077.447 1.077 1.077 0 .63-.547 1.077-1.077 1.077"/></g><g fill="#f8f9fa"><path d="M2427.079 11.424c-.563.133-1.213.439-1.69.918L2412.7 25.124l-.6 5.8c-.1.7.5 1.4 1.3 1.3l5.8-.6 13.6-13.7c.2-.3.2-.7 0-.9l-5.6-5.6c-.04-.04-.094-.04-.121 0m7.536 3.537c.173.173.52.173.78 0 .755-.515 1.39-.949 1.905-1.437.681-.768.583-2.055-.295-2.736-.04.027-.093.027-.12 0l-3.348-3.349c-.807-.819-2.192-.873-3.032-.12l-1.61 1.611c-.04.052.175.399.468.779l5.252 5.252M2445 37.88c-.517 0-.88-.363-.88-.88s.363-.88.88-.88.88.363.88.88-.463.88-.88.88"/></g><g fill="#f8f9fa"><path d="M2476.95 12.419c-.847.49-1.766 1.125-2.541 1.904L2462.7 26.119l-.6 5.8c-.1.7.5 1.4 1.3 1.3l5.8-.6 13.6-13.7c.2-.3.2-.7 0-.9l-5.6-5.6c-.083-.084-.195-.084-.25 0m8.112 2.715c.144.144.433.144.65 0 .779-.28 1.309-.392 1.588-.615.446-.518.242-1.47-.612-1.916-.083.056-.194.056-.25 0l-3.723-3.722c-.705-.734-1.86-.845-2.527-.251l-.976.977c.133-.106.578.183.973.65l4.877 4.877M2495 37.713c-.422 0-.713-.291-.713-.713s.291-.713.713-.713.713.291.713.713-.391.713-.713.713"/></g><g fill="#f8f9fa"><path d="M2526.788 13.655c-1.199.935-2.452 1.98-3.597 3.132L2512.7 27.355l-.6 5.8c-.1.7.5 1.4 1.3 1.3l5.8-.6 13.6-13.7c.2-.3.2-.7 0-.9l-5.6-5.6c-.137-.137-.32-.137-.412 0m8.829 1.694c.109.108.326.108.489 0 .809.013 1.208.301 1.194.406.153-.207-.182-.74-1.006-.894-.137.092-.32.092-.411 0l-4.189-4.188c-.58-.626-1.449-.809-1.9-.412l-.188.188c.349-.303 1.08-.086 1.6.489l4.411 4.411M2545 37.614c-.365 0-.614-.249-.614-.614s.249-.614.614-.614.614.249.614.614-.349.614-.614.614"/></g><g fill="#f8f9fa"><path d="M2576.648 14.734c-1.507 1.323-3.052 2.725-4.52 4.203l-9.428 9.497-.6 5.8c-.1.7.5 1.4 1.3 1.3l5.8-.6 13.6-13.7c.2-.3.2-.7 0-.9l-5.6-5.6c-.184-.184-.43-.184-.552 0m9.454.802c.077.078.232.078.348 0 .836.269 1.119.906.85 1.298-.102.063-.552-.105-1.35-.003-.184.123-.429.123-.552 0l-4.595-4.595c-.471-.532-1.089-.777-1.353-.552l.5-.5c.536-.475 1.518-.32 2.147.348l4.005 4.004M2595 37.555c-.332 0-.555-.223-.555-.555 0-.332.223-.555.555-.555.332 0 .555.223.555.555 0 .332-.323.555-.555.555"/></g><g fill="#f8f9fa"><path d="M2626.543 15.537c-1.736 1.612-3.498 3.28-5.207 5l-8.636 8.7-.6 5.8c-.1.7.5 1.4 1.3 1.3l5.8-.6 13.6-13.7c.2-.3.2-.7 0-.9l-5.6-5.6c-.219-.219-.511-.219-.657 0m9.92.139c.054.054.162.054.243 0 .855.459 1.053 1.356.594 1.961-.292.265-.828.368-1.606.661-.219.146-.511.146-.657 0l-4.898-4.898c-.389-.462-.821-.754-.945-.657l1.012-1.012c.676-.603 1.844-.495 2.555.243l3.702 3.702M2645 37.522c-.312 0-.522-.21-.522-.522 0-.312.21-.522.522-.522.312 0 .522.21.522.522 0 .312-.31.522-.522.522"/></g><g fill="#f8f9fa"><path d="M2676.467 16.12c-1.902 1.822-3.822 3.682-5.705 5.578l-8.062 8.122-.6 5.8c-.1.7.5 1.4 1.3 1.3l5.8-.6 13.6-13.7c.2-.3.2-.7 0-.9l-5.6-5.6c-.244-.245-.57-.245-.733 0m10.258-.343c.037.037.111.037.167 0 .869.597 1.005 1.683.408 2.443-.43.411-1.027.712-1.792 1.142-.244.163-.57.163-.733 0l-5.117-5.118c-.33-.411-.627-.737-.65-.733l1.384-1.383c.777-.696 2.08-.622 2.85.167l3.483 3.482M2695 37.505c-.303 0-.505-.202-.505-.505s.202-.505.505-.505.505.202.505.505-.302.505-.505.505"/></g><path d="M2726.412 16.544c-2.023 1.975-4.058 3.976-6.069 6.001l-7.643 7.699-.6 5.8c-.1.7.5 1.4 1.3 1.3l5.8-.6 13.6-13.7c.2-.3.2-.7 0-.9l-5.6-5.6c-.263-.263-.613-.263-.788 0m10.504-.693c.024.025.074.025.111 0 .879.698.97 1.921.273 2.793-.531.519-1.173.962-1.927 1.493-.263.175-.613.175-.789 0l-5.277-5.277c-.287-.375-.485-.725-.434-.789l1.654-1.654c.851-.764 2.253-.714 3.066.112l3.323 3.322M2776.371 16.853c-2.111 2.087-4.229 4.19-6.332 6.308l-7.339 7.392-.6 5.8c-.1.7.5 1.4 1.3 1.3l5.8-.6 13.6-13.7c.2-.3.2-.7 0-.9l-5.6-5.6c-.276-.276-.645-.276-.829 0m10.683-.948c.016.016.048.016.072 0 .887.771.945 2.094.174 3.048-.604.596-1.279 1.145-2.026 1.749-.276.184-.644.184-.828 0l-5.394-5.394c-.256-.348-.383-.716-.278-.829l1.852-1.851c.905-.813 2.378-.782 3.222.071l3.206 3.206M2826.342 17.075c-2.174 2.167-4.352 4.343-6.522 6.528l-7.12 7.172-.6 5.8c-.1.7.5 1.4 1.3 1.3l5.8-.6 13.6-13.7c.2-.3.2-.7 0-.9l-5.6-5.6c-.286-.286-.667-.286-.858 0m10.812-1.131c.01.009.028.009.042 0 .893.823.927 2.218.104 3.231-.656.652-1.355 1.276-2.096 1.932-.286.191-.668.191-.858 0l-5.478-5.477c-.233-.329-.308-.71-.164-.858l1.992-1.993c.944-.848 2.469-.83 3.336.042l3.122 3.123M2876.322 17.229c-2.218 2.222-4.438 4.449-6.654 6.681l-6.968 7.019-.6 5.8c-.1.7.5 1.4 1.3 1.3l5.8-.6 13.6-13.7c.2-.3.2-.7 0-.9l-5.6-5.6c-.293-.292-.683-.292-.878 0m10.901-1.259c.005.005.015.005.023 0 .895.86.914 2.305.054 3.359-.693.691-1.408 1.366-2.146 2.059-.292.195-.682.195-.877 0l-5.536-5.535c-.217-.315-.257-.705-.087-.878l2.092-2.091c.97-.873 2.53-.863 3.413.022l3.064 3.064M2926.309 17.329c-2.246 2.257-4.493 4.517-6.739 6.779l-6.87 6.921-.6 5.8c-.1.7.5 1.4 1.3 1.3l5.8-.6 13.6-13.7c.2-.3.2-.7 0-.9l-5.6-5.6c-.297-.297-.693-.297-.891 0m10.959-1.341c.002.002.006.002.009 0 .899.883.906 2.36.023 3.441-.716.715-1.442 1.424-2.177 2.141-.297.198-.693.198-.891 0l-5.573-5.573c-.207-.307-.224-.702-.036-.891l2.154-2.155c.988-.888 2.571-.884 3.464.01l3.027 3.027M2976.302 17.383c-2.262 2.277-4.523 4.556-6.785 6.833l-6.817 6.867-.6 5.8c-.1.7.5 1.4 1.3 1.3l5.8-.6 13.6-13.7c.2-.3.2-.7 0-.9l-5.6-5.6c-.299-.299-.698-.299-.898 0m10.99-1.386c.001.001.002.001.003 0 .899.896.901 2.391.005 3.486-.729.729-1.461 1.457-2.195 2.186-.299.2-.698.2-.897 0l-5.594-5.593c-.202-.302-.206-.701-.009-.898l2.19-2.189c.997-.898 2.593-.897 3.491.002l3.006 3.006M3026.3 17.4c-2.267 2.283-4.533 4.567-6.8 6.85l-6.8 6.85-.6 5.8c-.1.7.5 1.4 1.3 1.3l5.8-.6 13.6-13.7c.2-.3.2-.7 0-.9l-5.6-5.6c-.3-.3-.7-.3-.9 0m11-1.4c.9.9.9 2.4 0 3.5l-2.2 2.2c-.3.2-.7.2-.9 0l-5.6-5.6c-.2-.3-.2-.7 0-.9l2.2-2.2c1-.9 2.6-.9 3.5 0l3 3" fill="#f8f9fa"/></svg>