<svg xmlns="http://www.w3.org/2000/svg" xmlns:xlink="http://www.w3.org/1999/xlink" viewBox="0 0 435.42 442.67"><defs><style>.cls-1{fill:none;}.cls-2{fill:url(#linear-gradient);}.cls-3{fill:url(#linear-gradient-2);}.cls-4{fill:url(#radial-gradient);}.cls-5{fill:#7b45ff;}.cls-6{fill:url(#linear-gradient-3);}</style><linearGradient id="linear-gradient" x1="203.32" y1="101.71" x2="406.64" y2="101.71" gradientUnits="userSpaceOnUse"><stop offset="0" stop-color="#ffaf33"/><stop offset="1" stop-color="#ffb233"/></linearGradient><linearGradient id="linear-gradient-2" x1="277.98" y1="178.11" x2="416.25" y2="96.01" gradientUnits="userSpaceOnUse"><stop offset="0" stop-color="#ff6843"/><stop offset="1" stop-color="#ffb233"/></linearGradient><radialGradient id="radial-gradient" cx="201.08" cy="368.83" r="119.71" gradientTransform="translate(-104.88 84.08) rotate(-18.3) scale(1 0.99)" gradientUnits="userSpaceOnUse"><stop offset="0" stop-color="#49b3ff"/><stop offset="0.16" stop-color="#4cb2fb"/><stop offset="0.31" stop-color="#57adf1"/><stop offset="0.45" stop-color="#69a6de"/><stop offset="0.58" stop-color="#829cc4"/><stop offset="0.72" stop-color="#a28ea3"/><stop offset="0.85" stop-color="#c97e7b"/><stop offset="0.97" stop-color="#f76b4b"/><stop offset="0.99" stop-color="#ff6843"/></radialGradient><linearGradient id="linear-gradient-3" x1="169.44" y1="341.16" x2="169.44" y2="146.84" gradientUnits="userSpaceOnUse"><stop offset="0" stop-color="#49b3ff"/><stop offset="1" stop-color="#7b45ff"/></linearGradient></defs><title>Asset 8</title><g id="Layer_2" data-name="Layer 2"><g id="Layer_1-2" data-name="Layer 1"><path class="cls-1" d="M203.32,297.6v3.06c0-.51,0-1,0-1.54S203.31,298.1,203.32,297.6Z"/><path class="cls-1" d="M173.53,379.38q-2.88-4.25-5.45-8.71C169.83,373.62,171.66,376.53,173.53,379.38Z"/><path class="cls-1" d="M237.46,244.29h0Z"/><path class="cls-1" d="M237.46,244.29h0Z"/><path class="cls-1" d="M237.71,379.85h-.85a2.11,2.11,0,0,1,.35,0A4.1,4.1,0,0,1,237.71,379.85Z"/><path class="cls-1" d="M237.71,379.85h-.85a2.11,2.11,0,0,1,.35,0A4.1,4.1,0,0,1,237.71,379.85Z"/><path class="cls-1" d="M203.32,297.6v3.06c0-.51,0-1,0-1.54S203.31,298.1,203.32,297.6Z"/><path class="cls-1" d="M237.46,244.29h0Z"/><path class="cls-1" d="M260.75,216.08l-2.6,1.46-.15-.37C258.92,216.79,259.82,216.42,260.75,216.08Z"/><path class="cls-1" d="M173.53,379.38q-2.88-4.25-5.45-8.71C169.83,373.62,171.66,376.53,173.53,379.38Z"/><path class="cls-1" d="M203.32,297.6v3.06c0-.51,0-1,0-1.54S203.31,298.1,203.32,297.6Z"/><path class="cls-1" d="M237.46,244.29h0Z"/><path class="cls-1" d="M237.71,379.85h-.85a2.11,2.11,0,0,1,.35,0A4.1,4.1,0,0,1,237.71,379.85Z"/><path class="cls-1" d="M260.75,216.08l-2.6,1.46-.15-.37C258.92,216.79,259.82,216.42,260.75,216.08Z"/><path class="cls-1" d="M260.75,216.08l-2.6,1.46-.15-.37C258.92,216.79,259.82,216.42,260.75,216.08Z"/><polygon class="cls-2" points="406.64 67.82 338.87 108.49 293.69 135.6 203.32 135.6 203.32 67.82 406.64 67.82"/><path class="cls-3" d="M406.64,67.83V135.6l-58,32.35a144.06,144.06,0,0,0-102.85-3.64l20.44-12.26,27.42-16.45,45.18-27.11Z"/><path class="cls-4" d="M348,167A144.16,144.16,0,0,0,250,161.8L237.18,170l12.7,29.72,7.45,17.46c.92-.38,1.82-.75,2.75-1.07l0,0a88.84,88.84,0,1,1-57.46,84.6V411.55A143.55,143.55,0,1,0,348,167Z"/><path class="cls-1" d="M203.32,297.6v3.06c0-.51,0-1,0-1.54S203.31,298.1,203.32,297.6Z"/><path class="cls-1" d="M237.46,244.29h0Z"/><path class="cls-1" d="M237.71,379.85h-.85a2.11,2.11,0,0,1,.35,0A4.1,4.1,0,0,1,237.71,379.85Z"/><path class="cls-1" d="M260.75,216.08l-2.6,1.46-.15-.37C258.92,216.79,259.82,216.42,260.75,216.08Z"/><rect class="cls-5" width="338.87" height="67.77"/><path class="cls-6" d="M203.33,123.47V194h0v99c0,.52,0,1.05,0,1.58s0,1.07,0,1.6V411.56a147.62,147.62,0,0,1-29.65-33.25c0-.07-.1-.16-.14-.23-1.87-3-3.7-6-5.45-9.06a.38.38,0,0,1-.05-.11A238,238,0,0,1,156.5,346a248.78,248.78,0,0,1-20.94-100.38V194h0V53h67.77v70.52Z"/></g></g></svg>